<svg width="16" height="16" viewBox="0 0 16 16" fill="none" xmlns="http://www.w3.org/2000/svg">
<path d="M11.1667 2.37398V1.33398C11.1667 1.06065 10.94 0.833984 10.6667 0.833984C10.3933 0.833984 10.1667 1.06065 10.1667 1.33398V2.33398H5.83332V1.33398C5.83332 1.06065 5.60666 0.833984 5.33332 0.833984C5.05999 0.833984 4.83332 1.06065 4.83332 1.33398V2.37398C3.03332 2.54065 2.15999 3.61398 2.02666 5.20732C2.01332 5.40065 2.17332 5.56065 2.35999 5.56065H13.64C13.8333 5.56065 13.9933 5.39398 13.9733 5.20732C13.84 3.61398 12.9667 2.54065 11.1667 2.37398Z" fill="#667085"/>
<path d="M13.3333 6.56055H2.66667C2.3 6.56055 2 6.86055 2 7.22721V11.3339C2 13.3339 3 14.6672 5.33333 14.6672H10.6667C13 14.6672 14 13.3339 14 11.3339V7.22721C14 6.86055 13.7 6.56055 13.3333 6.56055ZM6.14 12.1405C6.10667 12.1672 6.07333 12.2005 6.04 12.2205C6 12.2472 5.96 12.2672 5.92 12.2805C5.88 12.3005 5.84 12.3139 5.8 12.3205C5.75333 12.3272 5.71333 12.3339 5.66667 12.3339C5.58 12.3339 5.49333 12.3139 5.41333 12.2805C5.32667 12.2472 5.26 12.2005 5.19333 12.1405C5.07333 12.0139 5 11.8405 5 11.6672C5 11.4939 5.07333 11.3205 5.19333 11.1939C5.26 11.1339 5.32667 11.0872 5.41333 11.0539C5.53333 11.0005 5.66667 10.9872 5.8 11.0139C5.84 11.0205 5.88 11.0339 5.92 11.0539C5.96 11.0672 6 11.0872 6.04 11.1139C6.07333 11.1405 6.10667 11.1672 6.14 11.1939C6.26 11.3205 6.33333 11.4939 6.33333 11.6672C6.33333 11.8405 6.26 12.0139 6.14 12.1405ZM6.14 9.80721C6.01333 9.92721 5.84 10.0005 5.66667 10.0005C5.49333 10.0005 5.32 9.92721 5.19333 9.80721C5.07333 9.68055 5 9.50721 5 9.33388C5 9.16055 5.07333 8.98721 5.19333 8.86055C5.38 8.67388 5.67333 8.61388 5.92 8.72055C6.00667 8.75388 6.08 8.80055 6.14 8.86055C6.26 8.98721 6.33333 9.16055 6.33333 9.33388C6.33333 9.50721 6.26 9.68055 6.14 9.80721ZM8.47333 12.1405C8.34667 12.2605 8.17333 12.3339 8 12.3339C7.82667 12.3339 7.65333 12.2605 7.52667 12.1405C7.40667 12.0139 7.33333 11.8405 7.33333 11.6672C7.33333 11.4939 7.40667 11.3205 7.52667 11.1939C7.77333 10.9472 8.22667 10.9472 8.47333 11.1939C8.59333 11.3205 8.66667 11.4939 8.66667 11.6672C8.66667 11.8405 8.59333 12.0139 8.47333 12.1405ZM8.47333 9.80721C8.44 9.83388 8.40667 9.86055 8.37333 9.88721C8.33333 9.91388 8.29333 9.93388 8.25333 9.94721C8.21333 9.96721 8.17333 9.98055 8.13333 9.98721C8.08667 9.99388 8.04667 10.0005 8 10.0005C7.82667 10.0005 7.65333 9.92721 7.52667 9.80721C7.40667 9.68055 7.33333 9.50721 7.33333 9.33388C7.33333 9.16055 7.40667 8.98721 7.52667 8.86055C7.58667 8.80055 7.66 8.75388 7.74667 8.72055C7.99333 8.61388 8.28667 8.67388 8.47333 8.86055C8.59333 8.98721 8.66667 9.16055 8.66667 9.33388C8.66667 9.50721 8.59333 9.68055 8.47333 9.80721ZM10.8067 12.1405C10.68 12.2605 10.5067 12.3339 10.3333 12.3339C10.16 12.3339 9.98667 12.2605 9.86 12.1405C9.74 12.0139 9.66667 11.8405 9.66667 11.6672C9.66667 11.4939 9.74 11.3205 9.86 11.1939C10.1067 10.9472 10.56 10.9472 10.8067 11.1939C10.9267 11.3205 11 11.4939 11 11.6672C11 11.8405 10.9267 12.0139 10.8067 12.1405ZM10.8067 9.80721C10.7733 9.83388 10.74 9.86055 10.7067 9.88721C10.6667 9.91388 10.6267 9.93388 10.5867 9.94721C10.5467 9.96721 10.5067 9.98055 10.4667 9.98721C10.42 9.99388 10.3733 10.0005 10.3333 10.0005C10.16 10.0005 9.98667 9.92721 9.86 9.80721C9.74 9.68055 9.66667 9.50721 9.66667 9.33388C9.66667 9.16055 9.74 8.98721 9.86 8.86055C9.92667 8.80055 9.99333 8.75388 10.08 8.72055C10.2 8.66721 10.3333 8.65388 10.4667 8.68055C10.5067 8.68721 10.5467 8.70055 10.5867 8.72055C10.6267 8.73388 10.6667 8.75388 10.7067 8.78055C10.74 8.80721 10.7733 8.83388 10.8067 8.86055C10.9267 8.98721 11 9.16055 11 9.33388C11 9.50721 10.9267 9.68055 10.8067 9.80721Z" fill="#667085"/>
</svg>
