<svg width="12" height="12" viewBox="0 0 12 12" fill="none" xmlns="http://www.w3.org/2000/svg">
<path fill-rule="evenodd" clip-rule="evenodd" d="M0.166748 5.99967C0.166748 9.22134 2.77842 11.833 6.00008 11.833C9.22174 11.833 11.8334 9.22134 11.8334 5.99967C11.8334 2.77801 9.22174 0.166342 6.00008 0.166342C2.77842 0.166342 0.166748 2.77801 0.166748 5.99967ZM6.58064 8.21388C6.58064 8.53604 6.31947 8.79721 5.9973 8.79721C5.67514 8.79721 5.41397 8.53604 5.41397 8.21388V5.63613C5.41397 5.31396 5.67514 5.05279 5.9973 5.05279C6.31947 5.05279 6.58064 5.31396 6.58064 5.63613V8.21388ZM5.99716 4.36859C5.675 4.36859 5.41383 4.10742 5.41383 3.78526C5.41383 3.46309 5.675 3.20193 5.99716 3.20193H6.003C6.32516 3.20193 6.58633 3.46309 6.58633 3.78526C6.58633 4.10742 6.32516 4.36859 6.003 4.36859H5.99716Z" fill="#667085"/>
</svg>
